<svg width="1088" height="1088" viewBox="0 0 1088 1088" fill="none" xmlns="http://www.w3.org/2000/svg">
<rect x="2" y="2" width="1084" height="1084" rx="542" stroke="#2563EB" stroke-width="4"/>
<path d="M315.591 523.682C315.227 520.015 313.667 517.167 310.909 515.136C308.152 513.106 304.409 512.091 299.682 512.091C296.47 512.091 293.758 512.545 291.545 513.455C289.333 514.333 287.636 515.561 286.455 517.136C285.303 518.712 284.727 520.5 284.727 522.5C284.667 524.167 285.015 525.621 285.773 526.864C286.561 528.106 287.636 529.182 289 530.091C290.364 530.97 291.939 531.742 293.727 532.409C295.515 533.045 297.424 533.591 299.455 534.045L307.818 536.045C311.879 536.955 315.606 538.167 319 539.682C322.394 541.197 325.333 543.061 327.818 545.273C330.303 547.485 332.227 550.091 333.591 553.091C334.985 556.091 335.697 559.53 335.727 563.409C335.697 569.106 334.242 574.045 331.364 578.227C328.515 582.379 324.394 585.606 319 587.909C313.636 590.182 307.167 591.318 299.591 591.318C292.076 591.318 285.53 590.167 279.955 587.864C274.409 585.561 270.076 582.152 266.955 577.636C263.864 573.091 262.242 567.47 262.091 560.773H281.136C281.348 563.894 282.242 566.5 283.818 568.591C285.424 570.652 287.561 572.212 290.227 573.273C292.924 574.303 295.97 574.818 299.364 574.818C302.697 574.818 305.591 574.333 308.045 573.364C310.53 572.394 312.455 571.045 313.818 569.318C315.182 567.591 315.864 565.606 315.864 563.364C315.864 561.273 315.242 559.515 314 558.091C312.788 556.667 311 555.455 308.636 554.455C306.303 553.455 303.439 552.545 300.045 551.727L289.909 549.182C282.061 547.273 275.864 544.288 271.318 540.227C266.773 536.167 264.515 530.697 264.545 523.818C264.515 518.182 266.015 513.258 269.045 509.045C272.106 504.833 276.303 501.545 281.636 499.182C286.97 496.818 293.03 495.636 299.818 495.636C306.727 495.636 312.758 496.818 317.909 499.182C323.091 501.545 327.121 504.833 330 509.045C332.879 513.258 334.364 518.136 334.455 523.682H315.591ZM367.966 549.636V590H348.602V496.909H367.42V532.5H368.239C369.814 528.379 372.36 525.152 375.875 522.818C379.39 520.455 383.799 519.273 389.102 519.273C393.951 519.273 398.178 520.333 401.784 522.455C405.42 524.545 408.239 527.561 410.239 531.5C412.269 535.409 413.269 540.091 413.239 545.545V590H393.875V549C393.905 544.697 392.814 541.348 390.602 538.955C388.42 536.561 385.36 535.364 381.42 535.364C378.784 535.364 376.451 535.924 374.42 537.045C372.42 538.167 370.845 539.803 369.693 541.955C368.572 544.076 367.996 546.636 367.966 549.636ZM460.023 591.364C452.962 591.364 446.856 589.864 441.705 586.864C436.583 583.833 432.629 579.621 429.841 574.227C427.053 568.803 425.659 562.515 425.659 555.364C425.659 548.152 427.053 541.848 429.841 536.455C432.629 531.03 436.583 526.818 441.705 523.818C446.856 520.788 452.962 519.273 460.023 519.273C467.083 519.273 473.174 520.788 478.295 523.818C483.447 526.818 487.417 531.03 490.205 536.455C492.992 541.848 494.386 548.152 494.386 555.364C494.386 562.515 492.992 568.803 490.205 574.227C487.417 579.621 483.447 583.833 478.295 586.864C473.174 589.864 467.083 591.364 460.023 591.364ZM460.114 576.364C463.326 576.364 466.008 575.455 468.159 573.636C470.311 571.788 471.932 569.273 473.023 566.091C474.144 562.909 474.705 559.288 474.705 555.227C474.705 551.167 474.144 547.545 473.023 544.364C471.932 541.182 470.311 538.667 468.159 536.818C466.008 534.97 463.326 534.045 460.114 534.045C456.871 534.045 454.144 534.97 451.932 536.818C449.75 538.667 448.098 541.182 446.977 544.364C445.886 547.545 445.341 551.167 445.341 555.227C445.341 559.288 445.886 562.909 446.977 566.091C448.098 569.273 449.75 571.788 451.932 573.636C454.144 575.455 456.871 576.364 460.114 576.364ZM506.977 616.182V520.182H526.068V531.909H526.932C527.78 530.03 529.008 528.121 530.614 526.182C532.25 524.212 534.371 522.576 536.977 521.273C539.614 519.939 542.886 519.273 546.795 519.273C551.886 519.273 556.583 520.606 560.886 523.273C565.189 525.909 568.629 529.894 571.205 535.227C573.78 540.53 575.068 547.182 575.068 555.182C575.068 562.97 573.811 569.545 571.295 574.909C568.811 580.242 565.417 584.288 561.114 587.045C556.841 589.773 552.053 591.136 546.75 591.136C542.992 591.136 539.795 590.515 537.159 589.273C534.553 588.03 532.417 586.47 530.75 584.591C529.083 582.682 527.811 580.758 526.932 578.818H526.341V616.182H506.977ZM525.932 555.091C525.932 559.242 526.508 562.864 527.659 565.955C528.811 569.045 530.477 571.455 532.659 573.182C534.841 574.879 537.492 575.727 540.614 575.727C543.765 575.727 546.432 574.864 548.614 573.136C550.795 571.379 552.447 568.955 553.568 565.864C554.72 562.742 555.295 559.152 555.295 555.091C555.295 551.061 554.735 547.515 553.614 544.455C552.492 541.394 550.841 539 548.659 537.273C546.477 535.545 543.795 534.682 540.614 534.682C537.462 534.682 534.795 535.515 532.614 537.182C530.462 538.848 528.811 541.212 527.659 544.273C526.508 547.333 525.932 550.939 525.932 555.091Z" fill="black"/>
<path d="M587.795 590V575.818L620.932 545.136C623.75 542.409 626.114 539.955 628.023 537.773C629.962 535.591 631.432 533.455 632.432 531.364C633.432 529.242 633.932 526.955 633.932 524.5C633.932 521.773 633.311 519.424 632.068 517.455C630.826 515.455 629.129 513.924 626.977 512.864C624.826 511.773 622.386 511.227 619.659 511.227C616.811 511.227 614.326 511.803 612.205 512.955C610.083 514.106 608.447 515.758 607.295 517.909C606.144 520.061 605.568 522.621 605.568 525.591H586.886C586.886 519.5 588.265 514.212 591.023 509.727C593.78 505.242 597.644 501.773 602.614 499.318C607.583 496.864 613.311 495.636 619.795 495.636C626.462 495.636 632.265 496.818 637.205 499.182C642.174 501.515 646.038 504.758 648.795 508.909C651.553 513.061 652.932 517.818 652.932 523.182C652.932 526.697 652.235 530.167 650.841 533.591C649.477 537.015 647.038 540.818 643.523 545C640.008 549.152 635.053 554.136 628.659 559.955L615.068 573.273V573.909H654.159V590H587.795ZM665.011 573.636V558.136L703.875 496.909H717.239V518.364H709.33L684.83 557.136V557.864H740.057V573.636H665.011ZM709.693 590V568.909L710.057 562.045V496.909H728.511V590H709.693ZM788.898 591.273C784.11 591.242 779.489 590.439 775.034 588.864C770.61 587.288 766.64 584.727 763.125 581.182C759.61 577.636 756.822 572.939 754.761 567.091C752.731 561.242 751.716 554.061 751.716 545.545C751.746 537.727 752.64 530.742 754.398 524.591C756.186 518.409 758.731 513.167 762.034 508.864C765.367 504.561 769.352 501.288 773.989 499.045C778.625 496.773 783.822 495.636 789.58 495.636C795.792 495.636 801.277 496.848 806.034 499.273C810.792 501.667 814.61 504.924 817.489 509.045C820.398 513.167 822.155 517.788 822.761 522.909H803.352C802.595 519.667 801.004 517.121 798.58 515.273C796.155 513.424 793.155 512.5 789.58 512.5C783.519 512.5 778.913 515.136 775.761 520.409C772.64 525.682 771.049 532.848 770.989 541.909H771.625C773.019 539.152 774.898 536.803 777.261 534.864C779.655 532.894 782.367 531.394 785.398 530.364C788.458 529.303 791.686 528.773 795.08 528.773C800.595 528.773 805.504 530.076 809.807 532.682C814.11 535.258 817.504 538.803 819.989 543.318C822.473 547.833 823.716 553 823.716 558.818C823.716 565.121 822.246 570.727 819.307 575.636C816.398 580.545 812.322 584.394 807.08 587.182C801.867 589.939 795.807 591.303 788.898 591.273ZM788.807 575.818C791.837 575.818 794.549 575.091 796.943 573.636C799.337 572.182 801.216 570.212 802.58 567.727C803.943 565.242 804.625 562.455 804.625 559.364C804.625 556.273 803.943 553.5 802.58 551.045C801.246 548.591 799.398 546.636 797.034 545.182C794.67 543.727 791.973 543 788.943 543C786.67 543 784.564 543.424 782.625 544.273C780.716 545.121 779.034 546.303 777.58 547.818C776.155 549.333 775.034 551.091 774.216 553.091C773.398 555.061 772.989 557.167 772.989 559.409C772.989 562.409 773.67 565.152 775.034 567.636C776.428 570.121 778.307 572.106 780.67 573.591C783.064 575.076 785.777 575.818 788.807 575.818Z" fill="#2563EB"/>
</svg>
